<svg width="27" height="27" viewBox="0 0 27 27" fill="none" xmlns="http://www.w3.org/2000/svg">
<g clip-path="url(#clip0_525_279)">
<path d="M23.625 6.75V23.625C23.625 24.0908 23.5371 24.5259 23.3613 24.9302C23.1855 25.3345 22.9438 25.6904 22.6362 25.998C22.3286 26.3057 21.9683 26.5474 21.5552 26.7231C21.1421 26.8989 20.707 26.9912 20.25 27H5.0625C4.59668 27 4.16162 26.9121 3.75732 26.7363C3.35303 26.5605 2.99707 26.3188 2.68945 26.0112C2.38184 25.7036 2.14014 25.3477 1.96436 24.9434C1.78857 24.5391 1.69629 24.0996 1.6875 23.625V6.75H5.0625V5.0625C5.0625 4.36816 5.19434 3.71338 5.45801 3.09814C5.72168 2.48291 6.08643 1.94678 6.55225 1.48975C7.01807 1.03271 7.5542 0.672363 8.16064 0.408691C8.76709 0.14502 9.42188 0.00878906 10.125 0C11.0391 0 11.8872 0.228516 12.6694 0.685547C13.4517 0.228516 14.291 0 15.1875 0C15.8818 0 16.5366 0.131836 17.1519 0.395508C17.7671 0.65918 18.3032 1.02393 18.7603 1.48975C19.2173 1.95557 19.5776 2.4917 19.8413 3.09814C20.105 3.70459 20.2412 4.35938 20.25 5.0625V6.75H23.625ZM18.5625 5.0625C18.5625 4.60547 18.4746 4.17041 18.2988 3.75732C18.123 3.34424 17.8813 2.98828 17.5737 2.68945C17.2661 2.39062 16.9058 2.14893 16.4927 1.96436C16.0796 1.77979 15.6445 1.6875 15.1875 1.6875C14.792 1.6875 14.4185 1.75342 14.0669 1.88525C14.3218 2.20166 14.5239 2.51367 14.6733 2.82129C14.8228 3.12891 14.9326 3.43652 15.0029 3.74414C15.0732 4.05176 15.1216 4.36377 15.1479 4.68018C15.1743 4.99658 15.1875 5.33496 15.1875 5.69531V6.75H18.5625V5.0625ZM6.75 6.75H13.5V5.0625C13.5 4.60547 13.4121 4.17041 13.2363 3.75732C13.0605 3.34424 12.8188 2.98828 12.5112 2.68945C12.2036 2.39062 11.8433 2.14893 11.4302 1.96436C11.0171 1.77979 10.582 1.6875 10.125 1.6875C9.65918 1.6875 9.22412 1.77539 8.81982 1.95117C8.41553 2.12695 8.05957 2.36865 7.75195 2.67627C7.44434 2.98389 7.20264 3.34424 7.02686 3.75732C6.85107 4.17041 6.75879 4.60547 6.75 5.0625V6.75ZM17.3232 25.3125C17.0244 24.7852 16.875 24.2227 16.875 23.625V8.4375H3.375V23.625C3.375 23.8623 3.41895 24.082 3.50684 24.2842C3.59473 24.4863 3.71338 24.6621 3.86279 24.8115C4.01221 24.9609 4.19238 25.084 4.40332 25.1807C4.61426 25.2773 4.83398 25.3213 5.0625 25.3125H17.3232ZM21.9375 8.4375H18.5625V23.625C18.5625 23.8623 18.6064 24.082 18.6943 24.2842C18.7822 24.4863 18.9009 24.6621 19.0503 24.8115C19.1997 24.9609 19.3799 25.084 19.5908 25.1807C19.8018 25.2773 20.0215 25.3213 20.25 25.3125C20.4873 25.3125 20.707 25.2686 20.9092 25.1807C21.1113 25.0928 21.2871 24.9741 21.4365 24.8247C21.5859 24.6753 21.709 24.4951 21.8057 24.2842C21.9023 24.0732 21.9463 23.8535 21.9375 23.625V8.4375Z" fill="white"/>
</g>
<defs>
<clipPath id="clip0_525_279">
<rect width="27" height="27" fill="white"/>
</clipPath>
</defs>
</svg>
