<svg width="247" height="247" viewBox="0 0 247 247" fill="none" xmlns="http://www.w3.org/2000/svg">
<path d="M241.092 241.092H5.23926V5.23999H241.092V241.092ZM6.23926 240.092H240.092V6.23999H6.23926V240.092Z" fill="#20DEFF"/>
<path d="M10.98 0.5H0.499023V10.981H10.98V0.5Z" fill="#161419"/>
<path d="M11.48 11.481H0V0H11.48V11.481ZM0.999023 10.481H10.479V1H0.999023V10.481Z" fill="#20DEFF"/>
<path d="M128.406 0.5H117.925V10.981H128.406V0.5Z" fill="#161419"/>
<path d="M128.906 11.481H117.425V0H128.906V11.481ZM118.425 10.481H127.906V1H118.425V10.481Z" fill="#20DEFF"/>
<path d="M128.406 235.353H117.925V245.834H128.406V235.353Z" fill="#161419"/>
<path d="M128.906 246.334H117.425V234.853H128.906V246.334ZM118.425 245.334H127.906V235.853H118.425V245.334Z" fill="#20DEFF"/>
<path d="M245.832 0.5H235.351V10.981H245.832V0.5Z" fill="#161419"/>
<path d="M246.332 11.481H234.852V0H246.332V11.481ZM235.852 10.481H245.332V1H235.852V10.481Z" fill="#20DEFF"/>
<path d="M10.98 117.926H0.499023V128.407H10.98V117.926Z" fill="#161419"/>
<path d="M11.48 128.907H0V117.426H11.48V128.907ZM0.999023 127.907H10.479V118.426H0.999023V127.907Z" fill="#20DEFF"/>
<path d="M245.832 117.926H235.351V128.407H245.832V117.926Z" fill="#161419"/>
<path d="M246.332 128.907H234.852V117.426H246.332V128.907ZM235.852 127.907H245.332V118.426H235.852V127.907Z" fill="#20DEFF"/>
<path d="M10.98 235.353H0.499023V245.834H10.98V235.353Z" fill="#161419"/>
<path d="M11.48 246.334H0V234.853H11.48V246.334ZM0.999023 245.334H10.479V235.853H0.999023V245.334Z" fill="#20DEFF"/>
<path d="M245.832 235.353H235.351V245.834H245.832V235.353Z" fill="#161419"/>
<path d="M246.332 246.334H234.852V234.853H246.332V246.334ZM235.852 245.334H245.332V235.853H235.852V245.334Z" fill="#20DEFF"/>
</svg>
