<svg width="763" height="738" viewBox="0 0 763 738" fill="none" xmlns="http://www.w3.org/2000/svg">
<g opacity="0.44">
<path d="M390.209 349C292.882 349 213.699 270.722 213.699 174.5C213.699 78.2785 292.882 0 390.209 0C487.537 0 566.719 78.2807 566.719 174.5C566.719 270.719 487.537 349 390.209 349ZM390.209 2.25358C294.139 2.25358 215.976 79.5235 215.976 174.502C215.976 269.481 294.136 346.751 390.209 346.751C486.282 346.751 564.442 269.481 564.442 174.502C564.442 79.5235 486.28 2.25358 390.209 2.25358Z" fill="#20DEFF"/>
<path d="M390.21 349C323.101 349 268.504 270.722 268.504 174.5C268.504 78.2785 323.101 0 390.21 0C457.318 0 511.915 78.2807 511.915 174.5C511.915 270.719 457.318 349 390.21 349ZM390.21 2.25358C324.356 2.25358 270.781 79.5235 270.781 174.502C270.781 269.481 324.356 346.751 390.21 346.751C456.063 346.751 509.638 269.481 509.638 174.502C509.638 79.5235 456.063 2.25358 390.21 2.25358Z" fill="#20DEFF"/>
<path d="M390.209 349C356.34 349 328.787 270.722 328.787 174.5C328.787 78.2785 356.342 0 390.209 0C424.077 0 451.631 78.2807 451.631 174.5C451.631 270.719 424.077 349 390.209 349ZM390.209 2.25358C357.597 2.25358 331.064 79.5235 331.064 174.502C331.064 269.481 357.597 346.751 390.209 346.751C422.822 346.751 449.354 269.481 449.354 174.502C449.354 79.5235 422.822 2.25358 390.209 2.25358Z" fill="#20DEFF"/>
<path d="M391.348 1.12939H389.07V347.878H391.348V1.12939Z" fill="#20DEFF"/>
<path d="M565.581 173.375H214.838V175.629H565.581V173.375Z" fill="#20DEFF"/>
<path d="M521.281 288.963H259.137V291.216H521.281V288.963Z" fill="#20DEFF"/>
<path d="M555.989 231.168H224.428V233.422H555.989V231.168Z" fill="#20DEFF"/>
<path d="M521.281 57.7959H259.137V60.0495H521.281V57.7959Z" fill="#20DEFF"/>
<path d="M555.989 115.582H224.428V117.836H555.989V115.582Z" fill="#20DEFF"/>
</g>
<g filter="url(#filter0_f_525_6604)">
<ellipse cx="381.199" cy="374" rx="308.5" ry="291" fill="#080B11"/>
</g>
<defs>
<filter id="filter0_f_525_6604" x="-0.000778198" y="10.3" width="762.4" height="727.4" filterUnits="userSpaceOnUse" color-interpolation-filters="sRGB">
<feFlood flood-opacity="0" result="BackgroundImageFix"/>
<feBlend mode="normal" in="SourceGraphic" in2="BackgroundImageFix" result="shape"/>
<feGaussianBlur stdDeviation="36.35" result="effect1_foregroundBlur_525_6604"/>
</filter>
</defs>
</svg>
