<svg width="354" height="346" viewBox="0 0 354 346" fill="none" xmlns="http://www.w3.org/2000/svg">
<g opacity="0.44">
<path d="M176.51 345.462C79.1824 345.462 0 267.977 0 172.731C0 77.485 79.1824 0 176.51 0C273.838 0 353.02 77.4872 353.02 172.731C353.02 267.975 273.838 345.462 176.51 345.462ZM176.51 2.23073C80.4394 2.23073 2.27725 78.7174 2.27725 172.733C2.27725 266.749 80.4371 343.236 176.51 343.236C272.583 343.236 350.743 266.749 350.743 172.733C350.743 78.7174 272.581 2.23073 176.51 2.23073Z" fill="#20DEFF"/>
<path d="M176.51 345.462C109.402 345.462 54.8043 267.977 54.8043 172.731C54.8043 77.485 109.402 0 176.51 0C243.618 0 298.216 77.4872 298.216 172.731C298.216 267.975 243.618 345.462 176.51 345.462ZM176.51 2.23073C110.656 2.23073 57.0816 78.7174 57.0816 172.733C57.0816 266.749 110.656 343.236 176.51 343.236C242.364 343.236 295.938 266.749 295.938 172.733C295.938 78.7174 242.364 2.23073 176.51 2.23073Z" fill="#20DEFF"/>
<path d="M176.51 345.462C142.64 345.462 115.088 267.977 115.088 172.731C115.088 77.485 142.643 0 176.51 0C210.377 0 237.932 77.4872 237.932 172.731C237.932 267.975 210.377 345.462 176.51 345.462ZM176.51 2.23073C143.897 2.23073 117.365 78.7174 117.365 172.733C117.365 266.749 143.897 343.236 176.51 343.236C209.122 343.236 235.655 266.749 235.655 172.733C235.655 78.7174 209.122 2.23073 176.51 2.23073Z" fill="#20DEFF"/>
<path d="M177.649 1.11646H175.371V344.35H177.649V1.11646Z" fill="#20DEFF"/>
<path d="M351.881 171.619H1.13867V173.848H351.881V171.619Z" fill="#20DEFF"/>
<path d="M307.582 286.031H45.438V288.259H307.582V286.031Z" fill="#20DEFF"/>
<path d="M342.29 228.825H10.7281V231.053H342.29V228.825Z" fill="#20DEFF"/>
<path d="M307.582 57.2079H45.438V59.4364H307.582V57.2079Z" fill="#20DEFF"/>
<path d="M342.29 114.414H10.7281V116.642H342.29V114.414Z" fill="#20DEFF"/>
</g>
</svg>
