<svg width="247" height="247" viewBox="0 0 247 247" fill="none" xmlns="http://www.w3.org/2000/svg">
<line x1="235" y1="240.332" x2="11" y2="240.332" stroke="#0097FF" stroke-width="2"/>
<line x1="5" y1="11.332" x2="5" y2="235.332" stroke="#0097FF" stroke-width="2"/>
<path d="M0.5 235.352L0.5 245.833H10.981V235.352H0.5Z" fill="#161419"/>
<path d="M11.481 234.852V246.332H0L0 234.852H11.481ZM10.481 245.333V235.853H1L1 245.333H10.481Z" fill="#0097FF"/>
<path d="M0.5 117.926L0.5 128.407H10.981V117.926H0.5Z" fill="#161419"/>
<path d="M11.481 117.426V128.907H0L0 117.426H11.481ZM10.481 127.907V118.426H1L1 127.907H10.481Z" fill="#0097FF"/>
<path d="M0.5 0.499939L0.5 10.981H10.981V0.499939H0.5Z" fill="#161419"/>
<path d="M11.481 -6.10352e-05V11.48H0L0 -6.10352e-05H11.481ZM10.481 10.48V0.999939H1L1 10.48H10.481Z" fill="#0097FF"/>
<path d="M117.926 235.352V245.833H128.407V235.352H117.926Z" fill="#161419"/>
<path d="M128.907 234.852V246.332H117.426V234.852H128.907ZM127.907 245.333V235.853H118.426V245.333H127.907Z" fill="#0097FF"/>
<path d="M235.353 235.352V245.833H245.834V235.352H235.353Z" fill="#161419"/>
<path d="M246.334 234.852V246.332H234.853V234.852H246.334ZM245.334 245.333V235.853H235.853V245.333H245.334Z" fill="#0097FF"/>
</svg>
